<svg id="visual" viewBox="0 0 900 300" width="900" height="300" xmlns="http://www.w3.org/2000/svg" xmlns:xlink="http://www.w3.org/1999/xlink" version="1.1"><path d="M0 130L21.5 124C43 118 86 106 128.8 102.8C171.7 99.7 214.3 105.3 257.2 103.8C300 102.3 343 93.7 385.8 83.8C428.7 74 471.3 63 514.2 63.2C557 63.3 600 74.7 642.8 83.2C685.7 91.7 728.3 97.3 771.2 97.8C814 98.3 857 93.7 878.5 91.3L900 89L900 301L878.5 301C857 301 814 301 771.2 301C728.3 301 685.7 301 642.8 301C600 301 557 301 514.2 301C471.3 301 428.7 301 385.8 301C343 301 300 301 257.2 301C214.3 301 171.7 301 128.8 301C86 301 43 301 21.5 301L0 301Z" fill="#0066ff"></path><path d="M0 125L21.5 130.5C43 136 86 147 128.8 142.7C171.7 138.3 214.3 118.7 257.2 117.8C300 117 343 135 385.8 148.5C428.7 162 471.3 171 514.2 161.5C557 152 600 124 642.8 111.2C685.7 98.3 728.3 100.7 771.2 113C814 125.3 857 147.7 878.5 158.8L900 170L900 301L878.5 301C857 301 814 301 771.2 301C728.3 301 685.7 301 642.8 301C600 301 557 301 514.2 301C471.3 301 428.7 301 385.8 301C343 301 300 301 257.2 301C214.3 301 171.7 301 128.8 301C86 301 43 301 21.5 301L0 301Z" fill="#3e54e1"></path><path d="M0 150L21.5 149.3C43 148.7 86 147.3 128.8 150.3C171.7 153.3 214.3 160.7 257.2 160.3C300 160 343 152 385.8 147.8C428.7 143.7 471.3 143.3 514.2 149C557 154.7 600 166.3 642.8 175.8C685.7 185.3 728.3 192.7 771.2 190C814 187.3 857 174.7 878.5 168.3L900 162L900 301L878.5 301C857 301 814 301 771.2 301C728.3 301 685.7 301 642.8 301C600 301 557 301 514.2 301C471.3 301 428.7 301 385.8 301C343 301 300 301 257.2 301C214.3 301 171.7 301 128.8 301C86 301 43 301 21.5 301L0 301Z" fill="#4e42c3"></path><path d="M0 235L21.5 233C43 231 86 227 128.8 224C171.7 221 214.3 219 257.2 218.8C300 218.7 343 220.3 385.8 216.7C428.7 213 471.3 204 514.2 202.5C557 201 600 207 642.8 214.5C685.7 222 728.3 231 771.2 233.5C814 236 857 232 878.5 230L900 228L900 301L878.5 301C857 301 814 301 771.2 301C728.3 301 685.7 301 642.8 301C600 301 557 301 514.2 301C471.3 301 428.7 301 385.8 301C343 301 300 301 257.2 301C214.3 301 171.7 301 128.8 301C86 301 43 301 21.5 301L0 301Z" fill="#5431a6"></path><path d="M0 271L21.5 270.3C43 269.7 86 268.3 128.8 261.5C171.7 254.7 214.3 242.3 257.2 239C300 235.7 343 241.3 385.8 245.3C428.7 249.3 471.3 251.7 514.2 249C557 246.3 600 238.7 642.8 240.2C685.7 241.7 728.3 252.3 771.2 256.2C814 260 857 257 878.5 255.5L900 254L900 301L878.5 301C857 301 814 301 771.2 301C728.3 301 685.7 301 642.8 301C600 301 557 301 514.2 301C471.3 301 428.7 301 385.8 301C343 301 300 301 257.2 301C214.3 301 171.7 301 128.8 301C86 301 43 301 21.5 301L0 301Z" fill="#531f8b"></path></svg>