<svg width="990" height="802" viewBox="0 0 990 802" fill="none" xmlns="http://www.w3.org/2000/svg">
<ellipse cx="246.5" cy="261.5" rx="23.5" ry="22.5" fill="#36BCA1"/>
<ellipse cx="170" cy="159" rx="53" ry="49" fill="#F29681"/>
<path d="M407.251 -155.67L546.901 -370.013L788.399 -444.071L1018.75 -343.191L1130.16 -114.575L1070.51 134.803L835 318.301L113.5 495.5L94 405.5L637.842 269.618L760.347 242.526L766.305 241.153L771.961 238.241L776.954 232.745L778.468 227.5L778.468 221.5L774.698 214.915L769.857 210.879L764.481 207.289L639.904 112.048L430.499 -42.5254L407.251 -155.67Z" fill="#FEE8B8"/>
<path d="M612.307 -29.4168L1207.19 -360.924L1149.5 389.16L612.307 -29.4168Z" fill="#36BCA1"/>
</svg>
